<?xml version="1.0" encoding="UTF-8" standalone="no"?>
<!-- Created with Inkscape (http://www.inkscape.org/) -->

<svg
   xmlns:dc="http://purl.org/dc/elements/1.1/"
   xmlns:cc="http://creativecommons.org/ns#"
   xmlns:rdf="http://www.w3.org/1999/02/22-rdf-syntax-ns#"
   xmlns:svg="http://www.w3.org/2000/svg"
   xmlns="http://www.w3.org/2000/svg"
   xmlns:sodipodi="http://sodipodi.sourceforge.net/DTD/sodipodi-0.dtd"
   xmlns:inkscape="http://www.inkscape.org/namespaces/inkscape"
   width="210mm"
   height="297mm"
   viewBox="0 0 744.09448819 1052.3622047"
   id="svg2"
   version="1.1"
   inkscape:version="0.91 r13725"
   sodipodi:docname="favicon.svg">
  <defs
     id="defs4" />
  <sodipodi:namedview
     id="base"
     pagecolor="#ffffff"
     bordercolor="#666666"
     borderopacity="1.0"
     inkscape:pageopacity="0.0"
     inkscape:pageshadow="2"
     inkscape:zoom="1.4"
     inkscape:cx="276.84011"
     inkscape:cy="570.31257"
     inkscape:document-units="px"
     inkscape:current-layer="layer1"
     showgrid="false"
     inkscape:window-width="1920"
     inkscape:window-height="1017"
     inkscape:window-x="-8"
     inkscape:window-y="-8"
     inkscape:window-maximized="1" />
  <metadata
     id="metadata7">
    <rdf:RDF>
      <cc:Work
         rdf:about="">
        <dc:format>image/svg+xml</dc:format>
        <dc:type
           rdf:resource="http://purl.org/dc/dcmitype/StillImage" />
        <dc:title></dc:title>
      </cc:Work>
    </rdf:RDF>
  </metadata>
  <g
     inkscape:label="Layer 1"
     inkscape:groupmode="layer"
     id="layer1">
    <circle
       style="opacity:1;fill:#ececec;fill-opacity:1;stroke:#000000;stroke-width:4.09069967;stroke-miterlimit:4;stroke-dasharray:none;stroke-opacity:1"
       id="path4136"
       cx="260.11429"
       cy="529.68945"
       r="113.63634"
       inkscape:export-xdpi="89.858795"
       inkscape:export-ydpi="89.858795" />
    <circle
       style="opacity:1;fill:#ffffff;fill-opacity:1;stroke:#000080;stroke-width:1.831;stroke-miterlimit:4;stroke-dasharray:none;stroke-opacity:1"
       id="path4138"
       cx="209.70818"
       cy="513.76813"
       r="21.867792"
       inkscape:export-xdpi="89.858795"
       inkscape:export-ydpi="89.858795" />
    <path
       style="opacity:1;fill:#502d16;fill-opacity:1;stroke:none;stroke-width:5;stroke-miterlimit:4;stroke-dasharray:none;stroke-opacity:1"
       d="m 274.49473,478.89861 c 5.9219,-9.59166 17.05448,-14.50165 27.86915,-15.99083 8.18786,-1.23227 16.53787,-1.38118 24.78306,-0.88152 6.23174,1.37035 10.89546,8.46281 8.95259,14.67827 -1.72162,3.74992 -6.53685,3.79772 -9.93075,2.68092 -11.6598,-3.74369 -25.12742,-2.88753 -35.50368,3.95093 -2.77318,2.8278 -7.14732,3.00454 -10.42143,0.88801 -2.333,-1.24636 -4.25593,-3.16071 -5.74894,-5.32578 z"
       id="path4148"
       inkscape:connector-curvature="0"
       inkscape:export-xdpi="89.858795"
       inkscape:export-ydpi="89.858795" />
    <path
       style="opacity:1;fill:#502d16;fill-opacity:1;stroke:none;stroke-width:5;stroke-miterlimit:4;stroke-dasharray:none;stroke-opacity:1"
       d="m 228.84939,484.65847 c -1.21287,-6.53932 -6.34276,-11.44666 -11.67608,-14.96542 -5.12052,-3.55032 -11.01897,-6.05578 -15.48566,-10.49233 -2.12865,-2.26167 -2.87078,-5.7145 -1.62072,-8.59644 2.24131,-5.52442 9.95946,-7.10828 14.66253,-3.80438 2.0361,1.44813 3.56883,3.4754 5.55616,4.99414 6.57442,5.64768 14.13512,10.82881 18.00522,18.86125 1.26822,2.57451 2.50419,5.60567 1.27903,8.43989 -1.55202,4.10937 -6.40094,7.0025 -10.72048,5.56329 z"
       id="path4150"
       inkscape:connector-curvature="0"
       inkscape:export-xdpi="89.858795"
       inkscape:export-ydpi="89.858795" />
    <circle
       r="6.8723774"
       cy="507.76813"
       cx="205.70818"
       id="circle4238"
       style="opacity:1;fill:#000000;fill-opacity:1;stroke:none;stroke-width:1.29325831;stroke-miterlimit:4;stroke-dasharray:none;stroke-opacity:1"
       inkscape:export-xdpi="89.858795"
       inkscape:export-ydpi="89.858795" />
    <circle
       r="21.867792"
       cy="513.76813"
       cx="310.52039"
       id="circle4254"
       style="opacity:1;fill:#ffffff;fill-opacity:1;stroke:#000080;stroke-width:1.83099997;stroke-miterlimit:4;stroke-dasharray:none;stroke-opacity:1"
       inkscape:export-xdpi="89.858795"
       inkscape:export-ydpi="89.858795" />
    <circle
       style="opacity:1;fill:#000000;fill-opacity:1;stroke:none;stroke-width:1.29325831;stroke-miterlimit:4;stroke-dasharray:none;stroke-opacity:1"
       id="circle4240"
       cx="306.52039"
       cy="517.76813"
       r="6.8723774"
       inkscape:export-xdpi="89.858795"
       inkscape:export-ydpi="89.858795" />
    <path
       style="opacity:1;fill:#502d16;fill-opacity:1;stroke:none;stroke-width:7.73099995;stroke-miterlimit:4;stroke-dasharray:none;stroke-opacity:1"
       d="m 203.15742,606.41366 c 31.78771,-7.30911 26.78985,-77.33915 84.49876,-43.58724 10.37481,6.06786 14.50833,13.42481 39.59798,8.26254 -19.45884,25.70058 -54.31201,-3.40512 -68.6497,3.88128 -19.38635,9.85212 -43.01143,58.12673 -65.63005,27.75874 0,0 5.66828,4.72278 10.18301,3.68468 z"
       id="path4244"
       inkscape:connector-curvature="0"
       sodipodi:nodetypes="sscscs"
       inkscape:export-xdpi="89.858795"
       inkscape:export-ydpi="89.858795" />
  </g>
</svg>
